<svg width="24" height="28" viewBox="0 0 24 28" fill="currentColor" xmlns="http://www.w3.org/2000/svg">
<path d="M20.447 22.452H16.893V16.883C16.893 15.555 16.866 13.846 15.041 13.846C13.188 13.846 12.905 15.291 12.905 16.785V22.452H9.351V11H12.765V12.561H12.811C13.288 11.661 14.448 10.711 16.181 10.711C19.782 10.711 20.448 13.081 20.448 16.166V22.452H20.447ZM5.337 9.433C4.193 9.433 3.274 8.507 3.274 7.368C3.274 6.23 4.194 5.305 5.337 5.305C6.477 5.305 7.401 6.23 7.401 7.368C7.401 8.507 6.476 9.433 5.337 9.433ZM7.119 22.452H3.555V11H7.119V22.452ZM22.225 2H1.771C0.792 2 0 2.774 0 3.729V24.271C0 25.227 0.792 26 1.771 26H22.222C23.2 26 24 25.227 24 24.271V3.729C24 2.774 23.2 2 22.222 2H22.225Z" fill="currentColor"/>
</svg>
