<svg width="149" height="181" viewBox="0 0 149 181" fill="currentcolor" xmlns="http://www.w3.org/2000/svg">
<g opacity="0.04">
<path d="M28.4357 124.689C36.8843 122.806 47.702 121.102 59.6819 120.968C76.8918 120.789 92.8055 123.792 107.065 129.844C108.987 130.651 110.865 131.503 112.698 132.444C133.975 118.009 146.849 92.6352 144.122 65.2439C140.144 25.4795 105.143 -3.436 65.4483 0.329735C25.5301 4.09547 -3.61503 39.6907 0.363373 79.6344C2.19612 98.1045 10.8235 114.243 23.4739 125.854C25.0384 125.451 26.6477 125.047 28.4357 124.689ZM70.0526 25.9726C93.6101 24.807 114.53 42.0219 118.062 65.3784C122.174 92.68 101.969 117.471 74.4333 118.816C50.8757 119.982 29.9556 102.767 26.4242 79.4103C22.3117 52.1535 42.5166 27.3175 70.0526 25.9726Z" fill="currentcolor"/>
<path d="M148.123 165.841C136.868 152.126 123.211 141.839 107.641 135.249C93.4498 129.237 77.6127 126.254 60.4855 126.432C48.5632 126.565 37.7975 128.258 29.3896 130.128C22.9391 131.553 17.8677 133.111 14.6647 134.225C12.5738 134.937 11.5061 137.253 12.3069 139.301L17.5118 152.17C18.2681 154.04 20.3589 155.02 22.2718 154.397C28.7223 152.259 43.6697 148.073 61.3753 147.984C90.4693 147.806 113.958 158.315 131.174 179.2C132.509 180.803 134.822 181.07 136.468 179.823L147.456 171.407C149.236 170.027 149.503 167.533 148.123 165.841Z" fill="currentcolor"/>
</g>
</svg>
