<svg width="24" height="24" viewBox="0 0 24 24" fill="currentColor" xmlns="http://www.w3.org/2000/svg">
<path d="M23.0275 12.0403C23.0304 12.2669 23.0025 12.4934 22.943 12.7114C22.8835 12.9302 22.7933 13.1395 22.6752 13.3334C22.5571 13.5274 22.4121 13.703 22.2451 13.8566C22.0781 14.0102 21.8899 14.1389 21.6873 14.2397C21.6921 14.3002 21.696 14.3606 21.6979 14.4221C21.7027 14.543 21.7027 14.665 21.6979 14.7859C21.696 14.8464 21.6921 14.9078 21.6873 14.9683C21.6873 18.673 17.3702 21.6835 12.0441 21.6835C6.71805 21.6835 2.40285 18.673 2.40285 14.9674C2.39805 14.9069 2.39421 14.8464 2.39229 14.785C2.38749 14.664 2.38749 14.5421 2.39229 14.4211C2.39421 14.3606 2.39805 14.2992 2.40285 14.2387C1.75869 13.943 1.27773 13.3795 1.08573 12.697C0.894694 12.0144 1.01181 11.2829 1.40829 10.6944C1.80381 10.1069 2.43837 9.72288 3.14205 9.64416C3.84669 9.56544 4.54941 9.79968 5.06589 10.2854C5.53917 9.9648 6.03549 9.67872 6.55005 9.42912C7.06461 9.18048 7.59741 8.96832 8.14269 8.79648C8.68797 8.62464 9.24573 8.49216 9.81021 8.40096C10.3747 8.30976 10.9449 8.25984 11.5171 8.2512L12.7411 2.51232C12.7545 2.44608 12.7814 2.38272 12.8198 2.32704C12.8582 2.27136 12.9072 2.22336 12.9638 2.18688C13.0205 2.1504 13.0848 2.12448 13.152 2.112C13.2182 2.10048 13.2873 2.10144 13.3536 2.11584L17.4057 2.92608C17.8147 2.22336 18.6729 1.92288 19.4313 2.21568C20.1897 2.50848 20.6227 3.30816 20.4528 4.10304C20.2838 4.89792 19.5619 5.45184 18.7507 5.41056C17.9385 5.36832 17.2781 4.74336 17.1907 3.936L13.6512 3.192L12.576 8.352C13.1405 8.36352 13.704 8.41728 14.2617 8.5104C15.3782 8.69664 16.4611 9.04224 17.4787 9.53856C17.9865 9.78624 18.4761 10.0694 18.9437 10.3872C19.2797 10.0646 19.7021 9.84576 20.159 9.7584C20.6169 9.67008 21.0893 9.71616 21.5213 9.89088C21.9533 10.0656 22.3248 10.3613 22.5926 10.7434C22.8595 11.1235 23.0102 11.5747 23.0275 12.0403ZM6.61341 14.327C6.69693 14.5277 6.81885 14.7101 6.97245 14.8637C7.12605 15.0173 7.30845 15.1392 7.50909 15.2227C7.70973 15.3053 7.92477 15.3485 8.14173 15.3485C8.81085 15.3485 9.41373 14.9453 9.67005 14.328C9.92637 13.7098 9.78429 12.9984 9.31101 12.5251C8.83773 12.0518 8.12637 11.9107 7.50813 12.1661C6.88989 12.4224 6.48765 13.0253 6.48765 13.6944C6.48765 13.9114 6.52989 14.1264 6.61341 14.327ZM16.0867 18.2976C16.1712 18.215 16.2201 18.1018 16.2211 17.9837C16.223 17.8646 16.1769 17.7514 16.0944 17.6659C16.0118 17.5805 15.8985 17.5325 15.7805 17.5315C15.6614 17.5296 15.5481 17.5757 15.4521 17.6477C15.2035 17.8262 14.9405 17.9827 14.6649 18.1171C14.3894 18.2515 14.1033 18.3619 13.8096 18.4474C13.5158 18.5328 13.2153 18.5933 12.911 18.6288C12.6067 18.6643 12.3005 18.673 11.9952 18.6566C11.6899 18.6701 11.3837 18.6576 11.0813 18.6202C10.7779 18.5827 10.4784 18.5184 10.1865 18.4301C9.89373 18.3418 9.60957 18.2285 9.33597 18.0922C9.06237 17.9558 8.80125 17.7965 8.55453 17.615C8.46909 17.545 8.36061 17.5085 8.24925 17.5142C8.13789 17.52 8.03421 17.5661 7.95549 17.6448C7.87773 17.7235 7.83069 17.8282 7.82493 17.9386C7.81917 18.049 7.85565 18.1584 7.92573 18.2438C8.21661 18.4627 8.52573 18.6566 8.84925 18.8227C9.17277 18.9888 9.51069 19.127 9.85821 19.2346C10.2057 19.343 10.5619 19.4208 10.9229 19.4688C11.2838 19.5158 11.6477 19.5322 12.0115 19.5168C12.3753 19.5322 12.7392 19.5158 13.1001 19.4688C13.823 19.3738 14.5248 19.1549 15.1737 18.8227C15.4973 18.6566 15.8064 18.4627 16.0973 18.2438L16.0867 18.2976ZM15.7833 15.481C16.007 15.4838 16.2297 15.4397 16.4371 15.3542C16.6445 15.2678 16.8317 15.1402 16.9881 14.9798C17.1446 14.8186 17.2656 14.6275 17.3462 14.4182C17.4269 14.209 17.4633 13.9853 17.4537 13.7616C17.4537 13.0925 17.0505 12.4896 16.4333 12.2333C15.815 11.977 15.1037 12.119 14.6304 12.5923C14.1571 13.0656 14.016 13.777 14.2713 14.3952C14.5277 15.0134 15.1305 15.4157 15.7997 15.4157L15.7833 15.481Z" fill="currentColor"/>
</svg>
