<svg width="24" height="24" viewBox="0 0 24 24" fill="currentColor" xmlns="http://www.w3.org/2000/svg">
<path d="M2.50569 10.8528C8.16606 8.37736 11.9547 6.74717 13.8415 5.96226C19.2453 3.71321 20.3623 3.32076 21.1019 3.32076C21.3736 3.32076 21.6302 3.39623 21.8566 3.54717C22.0076 3.68302 22.1132 3.86415 22.1283 4.07547C22.1736 4.33208 22.1736 4.58868 22.1585 4.84528C21.8717 7.92453 20.6038 15.3811 19.9547 18.8226C19.683 20.2868 19.1396 20.7849 18.6264 20.8151C17.4944 20.9208 16.634 20.0755 15.5472 19.3509C13.8415 18.234 12.8755 17.5245 11.2151 16.4377C9.29814 15.1698 10.5359 14.4755 11.6378 13.3434C11.9246 13.0415 16.9057 8.51321 16.9963 8.10566C17.0264 7.98491 16.9963 7.84906 16.9057 7.75849C16.7849 7.68302 16.634 7.66792 16.4981 7.71321C16.317 7.75849 13.5849 9.55472 8.28682 13.1321C7.51701 13.6604 6.80757 13.917 6.17361 13.917C5.47927 13.9019 4.15097 13.5245 3.15474 13.2075C1.9321 12.8 0.981158 12.5887 1.05663 11.9245C1.10191 11.5774 1.58493 11.2302 2.50569 10.8528Z" fill="currentColor"/>
</svg>
