<svg width="24" height="28" viewBox="0 0 24 28" fill="currentColor" xmlns="http://www.w3.org/2000/svg">
<path d="M23.953 6.32351C23.0545 6.71911 22.1026 6.98024 21.128 7.09851C22.1541 6.48176 22.9224 5.51455 23.291 4.37551C22.34 4.93051 21.286 5.33451 20.164 5.55951C19.4238 4.76793 18.4429 4.24293 17.3736 4.06601C16.3044 3.88909 15.2067 4.07016 14.2509 4.5811C13.2952 5.09204 12.5349 5.90426 12.0881 6.89163C11.6412 7.879 11.533 8.98627 11.78 10.0415C7.69 9.84851 4.067 7.8835 1.64 4.91551C1.19879 5.66532 0.968664 6.52053 0.974 7.39051C0.974 9.10051 1.844 10.6035 3.162 11.4865C2.38086 11.4616 1.61697 11.2504 0.934 10.8705V10.9305C0.933557 12.0669 1.32627 13.1684 2.04551 14.0483C2.76474 14.9281 3.76621 15.532 4.88 15.7575C4.1583 15.9509 3.40241 15.9799 2.668 15.8425C2.98412 16.8205 3.59766 17.6754 4.42301 18.288C5.24837 18.9006 6.24435 19.2402 7.272 19.2595C5.53153 20.6255 3.38248 21.3668 1.17 21.3645C0.78 21.3645 0.391 21.3415 0 21.2975C2.25571 22.7418 4.87851 23.5085 7.557 23.5065C16.61 23.5065 21.555 16.0105 21.555 9.52151C21.555 9.31151 21.555 9.10151 21.54 8.89151C22.506 8.19637 23.3392 7.33332 24 6.34351L23.953 6.32351Z" fill="currentColor"/>
</svg>
